<svg xmlns="http://www.w3.org/2000/svg" width="168" height="128" viewBox="0 0 168 128" fill="none">
  <path d="M2.7998 94.7999L45.765 52.4273C47.505 50.7113 49.5708 49.35 51.8442 48.4213C54.1177 47.4926 56.5544 47.0146 59.0152 47.0146C61.476 47.0146 63.9127 47.4926 66.1861 48.4213C68.4596 49.35 70.5253 50.7113 72.2654 52.4273L115.231 94.7999M102.738 82.4799L114.473 70.9073C116.213 69.1913 118.278 67.83 120.552 66.9013C122.825 65.9726 125.262 65.4946 127.723 65.4946C130.184 65.4946 132.62 65.9726 134.894 66.9013C137.167 67.83 139.233 69.1913 140.973 70.9073L165.2 94.7999M15.2921 125.6H152.707C156.021 125.6 159.198 124.302 161.541 121.991C163.884 119.681 165.2 116.547 165.2 113.28V14.7199C165.2 11.4524 163.884 8.31879 161.541 6.00835C159.198 3.6979 156.021 2.3999 152.707 2.3999H15.2921C11.9789 2.3999 8.80148 3.6979 6.45872 6.00835C4.11596 8.31879 2.7998 11.4524 2.7998 14.7199V113.28C2.7998 116.547 4.11596 119.681 6.45872 121.991C8.80148 124.302 11.9789 125.6 15.2921 125.6ZM102.738 33.1999H102.805V33.2656H102.738V33.1999ZM105.861 33.1999C105.861 34.0168 105.532 34.8002 104.947 35.3778C104.361 35.9554 103.567 36.2799 102.738 36.2799C101.91 36.2799 101.116 35.9554 100.53 35.3778C99.9442 34.8002 99.6152 34.0168 99.6152 33.1999C99.6152 32.383 99.9442 31.5996 100.53 31.022C101.116 30.4444 101.91 30.1199 102.738 30.1199C103.567 30.1199 104.361 30.4444 104.947 31.022C105.532 31.5996 105.861 32.383 105.861 33.1999Z" fill="none"/>
  <path d="M2.7998 94.7999L45.765 52.4273C47.505 50.7113 49.5708 49.35 51.8442 48.4213C54.1177 47.4926 56.5544 47.0146 59.0152 47.0146C61.476 47.0146 63.9127 47.4926 66.1861 48.4213C68.4596 49.35 70.5253 50.7113 72.2654 52.4273L115.231 94.7999M102.738 82.4799L114.473 70.9073C116.213 69.1913 118.278 67.83 120.552 66.9013C122.825 65.9726 125.262 65.4946 127.723 65.4946C130.184 65.4946 132.62 65.9726 134.894 66.9013C137.167 67.83 139.233 69.1913 140.973 70.9073L165.2 94.7999M15.2921 125.6H152.707C156.021 125.6 159.198 124.302 161.541 121.991C163.884 119.681 165.2 116.547 165.2 113.28V14.7199C165.2 11.4524 163.884 8.31879 161.541 6.00835C159.198 3.6979 156.021 2.3999 152.707 2.3999H15.2921C11.9789 2.3999 8.80148 3.6979 6.45872 6.00835C4.11596 8.31879 2.7998 11.4524 2.7998 14.7199V113.28C2.7998 116.547 4.11596 119.681 6.45872 121.991C8.80148 124.302 11.9789 125.6 15.2921 125.6ZM102.738 33.1999H102.805V33.2656H102.738V33.1999ZM105.861 33.1999C105.861 34.0168 105.532 34.8002 104.947 35.3778C104.361 35.9554 103.567 36.2799 102.738 36.2799C101.91 36.2799 101.116 35.9554 100.53 35.3778C99.9442 34.8002 99.6152 34.0168 99.6152 33.1999C99.6152 32.383 99.9442 31.5996 100.53 31.022C101.116 30.4444 101.91 30.1199 102.738 30.1199C103.567 30.1199 104.361 30.4444 104.947 31.022C105.532 31.5996 105.861 32.383 105.861 33.1999Z" stroke="#9C9999" stroke-width="4.5" stroke-linecap="round" stroke-linejoin="round"/>
</svg>