<svg xmlns="http://www.w3.org/2000/svg" width="24" height="20" viewBox="0 0 24 20" fill="none">
<path fill-rule="evenodd" clip-rule="evenodd" d="M23.2724 10C23.2724 10.3307 23.141 10.6478 22.9072 10.8816C22.6734 11.1154 22.3563 11.2468 22.0256 11.2468H4.34131L11.2534 17.8298C11.377 17.9419 11.4769 18.0776 11.547 18.229C11.6172 18.3804 11.6562 18.5444 11.6619 18.7111C11.6675 18.8779 11.6396 19.0441 11.5798 19.1999C11.52 19.3556 11.4296 19.4978 11.3139 19.618C11.1981 19.7382 11.0594 19.834 10.906 19.8996C10.7526 19.9652 10.5876 19.9993 10.4207 20C10.2539 20.0007 10.0886 19.9678 9.93464 19.9034C9.7807 19.839 9.64126 19.7444 9.52458 19.6251L0.381546 10.8977C0.26088 10.7814 0.164901 10.6419 0.0993441 10.4877C0.0337876 10.3335 0 10.1676 0 10C0 9.83241 0.0337876 9.66654 0.0993441 9.5123C0.164901 9.35806 0.26088 9.21862 0.381546 9.10232L9.52458 0.374881C9.64126 0.25561 9.7807 0.160974 9.93464 0.0965811C10.0886 0.0321885 10.2539 -0.000650389 10.4207 9.75874e-06C10.5876 0.000669906 10.7526 0.0348162 10.906 0.100425C11.0594 0.166033 11.1981 0.26177 11.3139 0.381961C11.4296 0.502152 11.52 0.644352 11.5798 0.800136C11.6396 0.955919 11.6675 1.12212 11.6619 1.28888C11.6562 1.45564 11.6172 1.61958 11.547 1.77097C11.4769 1.92236 11.377 2.05814 11.2534 2.17024L4.34131 8.75322H22.0256C22.3563 8.75322 22.6734 8.88458 22.9072 9.11839C23.141 9.35221 23.2724 9.66933 23.2724 10Z" fill="white"/>
</svg>