<svg xmlns="http://www.w3.org/2000/svg" width="14" height="14" viewBox="0 0 14 14" fill="none">
  <path d="M3.9375 1.75V3.0625M10.0625 1.75V3.0625M1.75 10.9375V4.375C1.75 4.0269 1.88828 3.69306 2.13442 3.44692C2.38056 3.20078 2.7144 3.0625 3.0625 3.0625H10.9375C11.2856 3.0625 11.6194 3.20078 11.8656 3.44692C12.1117 3.69306 12.25 4.0269 12.25 4.375V10.9375M1.75 10.9375C1.75 11.2856 1.88828 11.6194 2.13442 11.8656C2.38056 12.1117 2.7144 12.25 3.0625 12.25H10.9375C11.2856 12.25 11.6194 12.1117 11.8656 11.8656C12.1117 11.6194 12.25 11.2856 12.25 10.9375M1.75 10.9375V6.5625C1.75 6.2144 1.88828 5.88056 2.13442 5.63442C2.38056 5.38828 2.7144 5.25 3.0625 5.25H10.9375C11.2856 5.25 11.6194 5.38828 11.8656 5.63442C12.1117 5.88056 12.25 6.2144 12.25 6.5625V10.9375M7 7.4375H7.00467V7.44217H7V7.4375ZM7 8.75H7.00467V8.75467H7V8.75ZM7 10.0625H7.00467V10.0672H7V10.0625ZM5.6875 8.75H5.69217V8.75467H5.6875V8.75ZM5.6875 10.0625H5.69217V10.0672H5.6875V10.0625ZM4.375 8.75H4.37967V8.75467H4.375V8.75ZM4.375 10.0625H4.37967V10.0672H4.375V10.0625ZM8.3125 7.4375H8.31717V7.44217H8.3125V7.4375ZM8.3125 8.75H8.31717V8.75467H8.3125V8.75ZM8.3125 10.0625H8.31717V10.0672H8.3125V10.0625ZM9.625 7.4375H9.62967V7.44217H9.625V7.4375ZM9.625 8.75H9.62967V8.75467H9.625V8.75Z" stroke="#414141" stroke-linecap="round" stroke-linejoin="round"/>
</svg>