<svg xmlns="http://www.w3.org/2000/svg" width="19" height="22" viewBox="0 0 19 22" fill="none">
  <path d="M11.99 7.92343L11.644 17.154M6.856 17.154L6.51 7.92343M16.478 4.63121C16.82 4.68454 17.16 4.74095 17.5 4.80146M16.478 4.63121L15.41 18.8698C15.3664 19.4495 15.1111 19.991 14.695 20.3859C14.279 20.7809 13.7329 21.0002 13.166 21H5.334C4.7671 21.0002 4.22102 20.7809 3.80498 20.3859C3.38894 19.991 3.13359 19.4495 3.09 18.8698L2.022 4.63121M16.478 4.63121C15.3239 4.45225 14.1638 4.31644 13 4.22404M2.022 4.63121C1.68 4.68351 1.34 4.73992 1 4.80043M2.022 4.63121C3.17613 4.45226 4.33623 4.31644 5.5 4.22404M13 4.22404V3.28458C13 2.07435 12.09 1.06515 10.91 1.0272C9.80362 0.990933 8.69638 0.990933 7.59 1.0272C6.41 1.06515 5.5 2.07538 5.5 3.28458V4.22404M13 4.22404C10.5037 4.02617 7.99628 4.02617 5.5 4.22404" stroke="white" stroke-width="1.5" stroke-linecap="round" stroke-linejoin="round"/>
</svg>